<svg width="44" height="42" viewBox="0 0 44 42" fill="none" xmlns="http://www.w3.org/2000/svg">
<g clip-path="url(#clip0_7_0)">
<path d="M41.0619 18.1375C40.9969 17.564 40.3216 17.1325 39.7376 17.1325C37.8504 17.1325 36.1756 16.0352 35.4732 14.3369C34.7562 12.5978 35.2188 10.5699 36.6249 9.29211C37.0677 8.89099 37.1217 8.21934 36.7504 7.75311C35.7842 6.53793 34.6865 5.44011 33.4877 4.48875C33.0186 4.11605 32.3294 4.16793 31.9224 4.61422C30.6948 5.96105 28.4897 6.46152 26.7856 5.75722C25.013 5.01834 23.8941 3.23828 24.004 1.32764C24.0402 0.727106 23.5969 0.205283 22.9929 0.135577C21.4543 -0.0408938 19.9022 -0.0460115 18.3592 0.123577C17.7628 0.188871 17.3199 0.698341 17.3397 1.29128C17.4065 3.18322 16.275 4.93187 14.5194 5.64428C12.8358 6.32564 10.646 5.82887 9.42093 4.49387C9.01602 4.05411 8.33892 4.00011 7.86668 4.36487C6.63254 5.32434 5.5101 6.42287 4.53497 7.62816C4.155 8.09669 4.21112 8.77575 4.65771 9.17828C6.09154 10.4646 6.5538 12.5099 5.80937 14.2693C5.0986 15.9466 3.34056 17.0272 1.32814 17.0272C0.675084 17.0063 0.210323 17.441 0.138177 18.0293C-0.0428111 19.5616 -0.0447706 21.1238 0.129448 22.6686C0.194468 23.2446 0.889739 23.6723 1.48009 23.6723C3.27393 23.6272 4.9951 24.7266 5.71816 26.4678C6.43766 28.2069 5.9745 30.2339 4.56614 31.5135C4.12561 31.9146 4.06932 32.5846 4.44127 33.0503C5.39769 34.2579 6.49644 35.3565 7.69887 36.3159C8.17094 36.6925 8.85748 36.6397 9.26666 36.1929C10.499 34.8429 12.7038 34.3433 14.4009 35.049C16.1788 35.786 17.2971 37.5659 17.1879 39.477C17.1521 40.0776 17.5964 40.601 18.1983 40.6691C18.9857 40.7603 19.7771 40.8055 20.5711 40.8055C21.3246 40.8055 22.0783 40.7648 22.832 40.6816C23.4291 40.6163 23.8713 40.1063 23.8511 39.5132C23.7822 37.6222 24.9162 35.8733 26.6696 35.1623C28.3644 34.4766 30.5445 34.9785 31.7703 36.3115C32.1773 36.7504 32.8503 36.8037 33.3245 36.4403C34.5565 35.4833 35.6768 34.3853 36.6562 33.1769C37.0365 32.7092 36.9826 32.0293 36.5335 31.626C35.1 30.3406 34.6352 28.2945 35.3797 26.5368C36.0794 24.882 37.7721 23.771 39.5926 23.771L39.8474 23.7777C40.4384 23.8252 40.9816 23.3743 41.053 22.7769C41.2349 21.2432 41.2368 19.6829 41.0619 18.1375ZM20.5959 32.1652C14.0381 32.1652 8.72227 26.8991 8.72227 20.4029C8.72227 13.9066 14.0383 8.64058 20.5959 8.64058C27.1535 8.64058 32.4694 13.9066 32.4694 20.4029C32.4694 22.6079 31.8558 24.6703 30.79 26.4339L25.5908 21.2833C25.9672 20.4041 26.166 19.451 26.1659 18.4673C26.1659 16.5412 25.4086 14.7304 24.0336 13.3686C22.6589 12.0068 20.831 11.2568 18.887 11.2568C18.2382 11.2568 17.5925 11.3422 16.9677 11.5107C16.6941 11.5846 16.4704 11.808 16.3975 12.0796C16.3231 12.3574 16.407 12.642 16.6261 12.8593C16.6261 12.8593 19.1928 15.4216 20.0516 16.2722C20.1416 16.3613 20.1414 16.574 20.1288 16.6506L20.1208 16.7065C20.0342 17.6418 19.8673 18.7645 19.7296 19.196C19.7111 19.2142 19.6936 19.2295 19.6747 19.2482C19.6549 19.2678 19.6368 19.2867 19.6177 19.3061C19.1765 19.4464 18.0257 19.6137 17.0666 19.6988L17.0668 19.6936L17.0237 19.7044C17.016 19.7053 17.0018 19.7063 16.9829 19.7063C16.8792 19.7063 16.7267 19.6776 16.5881 19.5405C15.6942 18.6549 13.2281 16.2293 13.2281 16.2293C13.0068 16.0109 12.7799 15.965 12.6287 15.965C12.2761 15.965 11.9605 16.2173 11.8611 16.5793C11.1822 19.068 11.9019 21.7451 13.7397 23.5659C15.1147 24.9279 16.9428 25.6779 18.8872 25.6779C19.8801 25.6779 20.8422 25.4812 21.7295 25.1083L26.9851 30.3147C25.14 31.4843 22.9489 32.1652 20.5959 32.1652Z" fill="#E95723"/>
</g>
<defs>
<clipPath id="clip0_7_0">
<rect width="44" height="42" fill="white"/>
</clipPath>
</defs>
</svg>
